<svg xmlns="http://www.w3.org/2000/svg" width="484.801" height="484.8" viewBox="0 0 128.27 128.27" id="svg8">
    <defs id="defs2">
        <style id="style8603"/>
    </defs>
    <circle r="63.334" cy="64.135" cx="64.134" id="path5924" fill="#ffc107" stroke-width=".315" stroke-opacity=".5" paint-order="stroke fill markers"/>
    <path id="path5994" d="M115.344 46.25L11.77 76.804l50.574 50.574a63.334 63.334 0 0 0 1.79.09 63.334 63.334 0 0 0 63.332-63.334 63.334 63.334 0 0 0-.357-6.118L115.344 46.25z" opacity=".07" stroke="#000" stroke-width=".265"/>
    <path id="rect5824" d="M9.734 52.936v19.05a54.424 17.78 0 0 0 54.423 17.78 54.424 17.78 0 0 0 54.424-17.78v-19.05a54.424 17.78 0 0 1-6.615 8.45 54.424 17.78 0 0 1-.059.04 54.424 17.78 0 0 1-1.837 1.02 54.424 17.78 0 0 1-.005.001 54.424 17.78 0 0 1-3.062 1.418 54.424 17.78 0 0 1-.113.049 54.424 17.78 0 0 1-3.355 1.264 54.424 17.78 0 0 1-.267.093 54.424 17.78 0 0 1-3.569 1.1 54.424 17.78 0 0 1-.46.133 54.424 17.78 0 0 1-3.696.93 54.424 17.78 0 0 1-.699.163 54.424 17.78 0 0 1-3.734.76 54.424 17.78 0 0 1-.995.186 54.424 17.78 0 0 1-3.685.591 54.424 17.78 0 0 1-1.308.191 54.424 17.78 0 0 1-3.576.435 54.424 17.78 0 0 1-1.642.178 54.424 17.78 0 0 1-3.397.291 54.424 17.78 0 0 1-1.983.145 54.424 17.78 0 0 1-3.17.164 54.424 17.78 0 0 1-2.314.092 54.424 17.78 0 0 1-4.213.077 54.424 17.78 0 0 1-.67.008 54.424 17.78 0 0 1-45.906-8.237 54.424 17.78 0 0 1-.006-.003 54.424 17.78 0 0 1-1.865-1.071 54.424 17.78 0 0 1-2.218-1.503 54.424 17.78 0 0 1-.2-.148 54.424 17.78 0 0 1-1.572-1.409 54.424 17.78 0 0 1-.317-.317 54.424 17.78 0 0 1-1.004-1.287 54.424 17.78 0 0 1-.332-.492 54.424 17.78 0 0 1-.525-1.14 54.424 17.78 0 0 1-.245-.683 54.424 17.78 0 0 1-.233-1.49z" fill="#318735" stroke-width=".802" stroke-opacity=".5" paint-order="stroke fill markers"/>
    <ellipse ry="19.447" rx="54.424" cy="52.857" cx="64.157" id="path5787" fill="#4caf50" stroke-width=".206" stroke-opacity=".5" paint-order="stroke fill markers"/>
    <ellipse id="ellipse5800" cx="64.065" cy="46.56" rx="27.725" ry="9.906" fill="#4d4d4d" stroke-width=".105" stroke-opacity=".5" paint-order="stroke fill markers"/>
    <path id="ellipse5802" d="M64.056 39.919a13.643 5.047 0 0 0-7.404.813h-6.238v4.234a13.643 5.047 0 0 0 13.642 5.047 13.643 5.047 0 0 0 13.643-5.047v-4.234H71.48a13.643 5.047 0 0 0-7.424-.813z" fill="#a62323" stroke-width=".053" stroke-opacity=".5" paint-order="stroke fill markers"/>
    <path id="ellipse5837" d="M64.065 36.654A27.725 9.906 0 0 0 36.34 46.56a27.725 9.906 0 0 0 .38 1.614 27.725 9.906 0 0 1 27.345-8.345A27.725 9.906 0 0 1 91.41 48.12a27.725 9.906 0 0 0 .38-1.56 27.725 9.906 0 0 0-27.725-9.906z" fill="#333" stroke-width=".105" stroke-opacity=".5" paint-order="stroke fill markers"/>
    <ellipse id="ellipse5840" cx="64.056" cy="40.733" rx="13.643" ry="5.047" fill="#f44336" stroke-width=".053" stroke-opacity=".5" paint-order="stroke fill markers"/>
</svg>
