<?xml version="1.0" encoding="UTF-8" standalone="no"?>
<!-- Created with Inkscape (http://www.inkscape.org/) -->

<svg
   xmlns:dc="http://purl.org/dc/elements/1.1/"
   xmlns:cc="http://creativecommons.org/ns#"
   xmlns:rdf="http://www.w3.org/1999/02/22-rdf-syntax-ns#"
   xmlns:svg="http://www.w3.org/2000/svg"
   xmlns="http://www.w3.org/2000/svg"
   xmlns:sodipodi="http://sodipodi.sourceforge.net/DTD/sodipodi-0.dtd"
   xmlns:inkscape="http://www.inkscape.org/namespaces/inkscape"
   width="128.2702mm"
   height="128.26999mm"
   viewBox="0 0 128.2702 128.26999"
   version="1.1"
   id="svg8"
   inkscape:version="0.92.1 r15371"
   sodipodi:docname="icon.svg">
  <defs
     id="defs2">
    <style
       id="style8603">.cls-1,.cls-3,.cls-5,.cls-7,.cls-8,.cls-9{fill:none;}.cls-2{isolation:isolate;}.cls-3,.cls-7,.cls-8,.cls-9{stroke:#1691cd;}.cls-3,.cls-4,.cls-5,.cls-7,.cls-8,.cls-9{stroke-miterlimit:10;}.cls-3,.cls-5{stroke-width:0.51px;}.cls-13,.cls-19,.cls-4{fill:#fff;}.cls-4{stroke:#cecece;stroke-width:0.26px;}.cls-5{stroke:#202020;}.cls-6{opacity:0.8;}.cls-7{stroke-width:0.9px;}.cls-8,.cls-9{stroke-width:0.51px;}.cls-8{opacity:0.5;}.cls-9{opacity:0.6;}.cls-10,.cls-11{opacity:0.2;}.cls-10{mix-blend-mode:darken;}.cls-11{mix-blend-mode:multiply;}.cls-12{fill:#cbcbca;}.cls-14{fill:#064f67;}.cls-15{fill:#0b759a;}.cls-16{fill:#0e86b2;}.cls-17{fill:#1a90cb;}.cls-18{clip-path:url(#clip-path);}.cls-19{opacity:0.06;}.cls-20{fill:#5c5c5d;}</style>
  </defs>
  <sodipodi:namedview
     id="base"
     pagecolor="#ffffff"
     bordercolor="#666666"
     borderopacity="1.0"
     inkscape:pageopacity="0.0"
     inkscape:pageshadow="2"
     inkscape:zoom="0.48"
     inkscape:cx="11.79437"
     inkscape:cy="189.42512"
     inkscape:document-units="mm"
     inkscape:current-layer="layer1"
     showgrid="false"
     inkscape:window-width="1600"
     inkscape:window-height="837"
     inkscape:window-x="-8"
     inkscape:window-y="-8"
     inkscape:window-maximized="1"
     inkscape:snap-bbox="true"
     inkscape:bbox-nodes="true"
     inkscape:bbox-paths="true"
     inkscape:snap-bbox-edge-midpoints="true"
     inkscape:snap-bbox-midpoints="true"
     inkscape:snap-global="true"
     inkscape:snap-smooth-nodes="true"
     inkscape:object-paths="true"
     inkscape:snap-intersection-paths="true"
     inkscape:snap-grids="false"
     inkscape:snap-midpoints="true"
     showguides="true"
     inkscape:guide-bbox="true"
     fit-margin-top="0"
     fit-margin-left="0"
     fit-margin-right="0"
     fit-margin-bottom="0"
     scale-x="1.9"
     inkscape:snap-object-midpoints="true"
     inkscape:snap-center="false"
     inkscape:snap-page="true"
     inkscape:snap-nodes="true" />
  <metadata
     id="metadata5">
    <rdf:RDF>
      <cc:Work
         rdf:about="">
        <dc:format>image/svg+xml</dc:format>
        <dc:type
           rdf:resource="http://purl.org/dc/dcmitype/StillImage" />
        <dc:title />
      </cc:Work>
    </rdf:RDF>
  </metadata>
  <g
     inkscape:label="Layer 1"
     inkscape:groupmode="layer"
     id="layer1"
     transform="translate(-201.10917,164.76595)">
    <circle
       style="opacity:1;fill:#ffc107;fill-opacity:1;stroke:none;stroke-width:0.3152;stroke-miterlimit:4;stroke-dasharray:none;stroke-opacity:0.5;paint-order:stroke fill markers"
       id="path5924"
       cx="265.24426"
       cy="-100.63096"
       r="63.334259" />
    <path
       style="opacity:0.07;fill:#000000;stroke:#000000;stroke-width:0.99999994px;stroke-linecap:butt;stroke-linejoin:miter;stroke-opacity:1"
       d="M 435.95117 174.80469 L 44.490234 290.28711 L 235.63672 481.43555 A 239.37358 239.37358 0 0 0 242.40039 481.77344 A 239.37358 239.37358 0 0 0 481.77344 242.40039 A 239.37358 239.37358 0 0 0 480.42188 219.27539 L 435.95117 174.80469 z "
       transform="matrix(0.26458333,0,0,0.26458333,201.10917,-164.76595)"
       id="path5994" />
    <path
       style="opacity:1;fill:#318735;fill-opacity:1;stroke:none;stroke-width:3.03239346;stroke-miterlimit:4;stroke-dasharray:none;stroke-opacity:0.5;paint-order:stroke fill markers"
       d="M 36.789062 200.07422 L 36.789062 267.27344 L 36.789062 272.07422 A 205.69826 67.200094 0 0 0 242.48633 339.27344 A 205.69826 67.200094 0 0 0 448.18555 272.07422 L 448.18555 267.27344 L 448.18555 200.07422 A 205.69826 67.200093 0 0 1 423.18359 232.01172 A 205.69826 67.200093 0 0 1 422.96094 232.16211 A 205.69826 67.200094 0 0 1 416.01562 236.01562 A 205.69826 67.200094 0 0 1 415.99609 236.02344 A 205.69826 67.200094 0 0 1 404.42578 241.38086 A 205.69826 67.200094 0 0 1 403.99609 241.56641 A 205.69826 67.200094 0 0 1 391.31641 246.3457 A 205.69826 67.200094 0 0 1 390.30859 246.69727 A 205.69826 67.200094 0 0 1 376.81836 250.85742 A 205.69826 67.200094 0 0 1 375.08203 251.35547 A 205.69826 67.200094 0 0 1 361.10938 254.87109 A 205.69826 67.200094 0 0 1 358.46875 255.48828 A 205.69826 67.200094 0 0 1 344.35742 258.35742 A 205.69826 67.200094 0 0 1 340.5957 259.0625 A 205.69826 67.200094 0 0 1 326.66797 261.29688 A 205.69826 67.200094 0 0 1 321.72461 262.01953 A 205.69826 67.200094 0 0 1 308.20898 263.66211 A 205.69826 67.200094 0 0 1 302.00195 264.33594 A 205.69826 67.200094 0 0 1 289.16211 265.43555 A 205.69826 67.200094 0 0 1 281.66797 265.98438 A 205.69826 67.200094 0 0 1 269.68359 266.60352 A 205.69826 67.200094 0 0 1 260.94141 266.95117 A 205.69826 67.200094 0 0 1 245.01758 267.24414 A 205.69826 67.200094 0 0 1 242.48438 267.27344 A 205.69826 67.200094 0 0 1 68.978516 236.14258 A 205.69826 67.200094 0 0 1 68.957031 236.13086 A 205.69826 67.200094 0 0 1 61.908203 232.08008 A 205.69826 67.200093 0 0 1 53.525391 226.40039 A 205.69826 67.200094 0 0 1 52.767578 225.8418 A 205.69826 67.200093 0 0 1 46.828125 220.51758 A 205.69826 67.200094 0 0 1 45.626953 219.32031 A 205.69826 67.200093 0 0 1 41.833984 214.45312 A 205.69826 67.200094 0 0 1 40.580078 212.5957 A 205.69826 67.200093 0 0 1 38.595703 208.28906 A 205.69826 67.200094 0 0 1 37.667969 205.70508 A 205.69826 67.200093 0 0 1 36.789062 200.07422 z "
       id="rect5824"
       transform="matrix(0.26458333,0,0,0.26458333,201.10917,-164.76595)" />
    <ellipse
       style="opacity:1;fill:#4caf50;fill-opacity:1;stroke:none;stroke-width:0.20585547;stroke-miterlimit:4;stroke-dasharray:none;stroke-opacity:0.5;paint-order:stroke fill markers"
       id="path5787"
       cx="265.26712"
       cy="-111.90891"
       rx="54.424332"
       ry="19.446678" />
    <ellipse
       ry="9.9056892"
       rx="27.724857"
       cy="-118.20617"
       cx="265.17496"
       id="ellipse5800"
       style="opacity:1;fill:#4d4d4d;fill-opacity:1;stroke:none;stroke-width:0.10486248;stroke-miterlimit:4;stroke-dasharray:none;stroke-opacity:0.5;paint-order:stroke fill markers" />
    <path
       inkscape:connector-curvature="0"
       style="opacity:1;fill:#a62323;fill-opacity:1;stroke:none;stroke-width:0.052508;stroke-miterlimit:4;stroke-dasharray:none;stroke-opacity:0.5;paint-order:stroke fill markers"
       d="m 265.16624,-124.84746 a 13.642696,5.0473623 0 0 0 -7.40471,0.81391 h -6.23787 v 4.23333 a 13.642696,5.0473623 0 0 0 13.64258,5.04724 13.642696,5.0473623 0 0 0 13.6431,-5.04724 v -4.23333 h -6.21926 a 13.642696,5.0473623 0 0 0 -7.42384,-0.81391 z"
       id="ellipse5802" />
    <path
       inkscape:connector-curvature="0"
       style="opacity:1;fill:#333333;fill-opacity:1;stroke:none;stroke-width:0.10486247;stroke-miterlimit:4;stroke-dasharray:none;stroke-opacity:0.5;paint-order:stroke fill markers"
       d="m 265.17503,-128.11186 a 27.724856,9.905689 0 0 0 -27.72493,9.90586 27.724856,9.905689 0 0 0 0.37983,1.61437 27.724856,9.905689 0 0 1 27.3451,-8.34523 27.724856,9.905689 0 0 1 27.34458,8.29097 27.724856,9.905689 0 0 0 0.38034,-1.56011 27.724856,9.905689 0 0 0 -27.72492,-9.90586 z"
       id="ellipse5837" />
    <ellipse
       ry="5.0473623"
       rx="13.642696"
       cy="-124.03342"
       cx="265.16647"
       id="ellipse5840"
       style="opacity:1;fill:#f44336;fill-opacity:1;stroke:none;stroke-width:0.052508;stroke-miterlimit:4;stroke-dasharray:none;stroke-opacity:0.5;paint-order:stroke fill markers" />
  </g>
</svg>
